<svg width="24" height="24" viewBox="0 0 24 24" fill="none" xmlns="http://www.w3.org/2000/svg">
<path d="M12 19H5C4.46957 19 3.96086 18.7893 3.58579 18.4142C3.21071 18.0391 3 17.5304 3 17V5C3 4.46957 3.21071 3.96086 3.58579 3.58579C3.96086 3.21071 4.46957 3 5 3H18C18.5304 3 19.0391 3.21071 19.4142 3.58579C19.7893 3.96086 20 4.46957 20 5V10.5M3 8H20M19.001 19C18.4706 19 17.9619 18.7893 17.5868 18.4142C17.2117 18.0391 17.001 17.5304 17.001 17C17.001 16.4696 17.2117 15.9609 17.5868 15.5858C17.9619 15.2107 18.4706 15 19.001 15M19.001 19C19.5314 19 20.0401 18.7893 20.4152 18.4142C20.7903 18.0391 21.001 17.5304 21.001 17C21.001 16.4696 20.7903 15.9609 20.4152 15.5858C20.0401 15.2107 19.5314 15 19.001 15M19.001 19V20.5M19.001 15V13.5M22.032 15.25L20.733 16M17.27 18L15.97 18.75M15.97 15.25L17.27 16M20.733 18L22.033 18.75" stroke="#191919" stroke-width="1.5" stroke-linecap="round" stroke-linejoin="round"/>
</svg>
