<svg width="32" height="32" viewBox="0 0 32 32" fill="none" xmlns="http://www.w3.org/2000/svg">
<path d="M12.0002 22.6667V24C12.0002 25.0609 12.4216 26.0783 13.1717 26.8284C13.9219 27.5786 14.9393 28 16.0002 28C17.061 28 18.0784 27.5786 18.8286 26.8284C19.5787 26.0783 20.0002 25.0609 20.0002 24V22.6667M13.3335 6.66667C13.3335 5.95942 13.6144 5.28115 14.1145 4.78105C14.6146 4.28095 15.2929 4 16.0002 4C16.7074 4 17.3857 4.28095 17.8858 4.78105C18.3859 5.28115 18.6668 5.95942 18.6668 6.66667C20.198 7.3907 21.5034 8.51777 22.4429 9.92707C23.3824 11.3364 23.9207 12.9748 24.0002 14.6667V18.6667C24.1005 19.4956 24.3941 20.2894 24.8572 20.9842C25.3204 21.6789 25.9402 22.2552 26.6668 22.6667H5.3335C6.06008 22.2552 6.67991 21.6789 7.14308 20.9842C7.60625 20.2894 7.89982 19.4956 8.00016 18.6667V14.6667C8.07958 12.9748 8.6179 11.3364 9.55743 9.92707C10.497 8.51777 11.8023 7.3907 13.3335 6.66667Z" stroke="#5F5F5F" stroke-width="1.5" stroke-linecap="round" stroke-linejoin="round"/>
</svg>
