<svg width="32" height="32" viewBox="0 0 32 32" fill="none" xmlns="http://www.w3.org/2000/svg">
<path d="M4 16C4 17.5759 4.31039 19.1363 4.91345 20.5922C5.5165 22.0481 6.40042 23.371 7.51472 24.4853C8.62902 25.5996 9.95189 26.4835 11.4078 27.0866C12.8637 27.6896 14.4241 28 16 28M4 16C4 14.4241 4.31039 12.8637 4.91345 11.4078C5.5165 9.95189 6.40042 8.62902 7.51472 7.51472C8.62902 6.40042 9.95189 5.5165 11.4078 4.91345C12.8637 4.31039 14.4241 4 16 4M4 16C4 18.9467 9.37333 21.3333 16 21.3333C22.6267 21.3333 28 18.9467 28 16M4 16C4 13.0533 9.37333 10.6667 16 10.6667C22.6267 10.6667 28 13.0533 28 16M16 28C17.5759 28 19.1363 27.6896 20.5922 27.0866C22.0481 26.4835 23.371 25.5996 24.4853 24.4853C25.5996 23.371 26.4835 22.0481 27.0866 20.5922C27.6896 19.1363 28 17.5759 28 16M16 28C14.5855 28 13.229 26.7357 12.2288 24.4853C11.2286 22.2348 10.6667 19.1826 10.6667 16C10.6667 12.8174 11.2286 9.76516 12.2288 7.51472C13.229 5.26428 14.5855 4 16 4M16 28C17.4145 28 18.771 26.7357 19.7712 24.4853C20.7714 22.2348 21.3333 19.1826 21.3333 16C21.3333 12.8174 20.7714 9.76516 19.7712 7.51472C18.771 5.26428 17.4145 4 16 4M28 16C28 14.4241 27.6896 12.8637 27.0866 11.4078C26.4835 9.95189 25.5996 8.62902 24.4853 7.51472C23.371 6.40042 22.0481 5.5165 20.5922 4.91345C19.1363 4.31039 17.5759 4 16 4" stroke="#5F5F5F" stroke-width="1.5" stroke-linecap="round" stroke-linejoin="round"/>
</svg>
